<svg width="1080" height="1080" viewBox="0 0 1080 1080" fill="none" xmlns="http://www.w3.org/2000/svg">
<g clip-path="url(#clip0_9_64)">
<rect width="1080" height="1080" rx="540" fill="#5A45F0"/>
<g opacity="0.05">
<rect x="746.472" y="1036" width="203.476" height="162.358" fill="#A3A3A3" fill-opacity="0.5"/>
<rect x="-74.9326" y="378.445" width="204.052" height="160.491" fill="#A3A3A3" fill-opacity="0.15"/>
<line x1="-1306.1" y1="705.141" x2="2387" y2="705.141" stroke="#1F00FF" stroke-width="1.2607"/>
<line x1="-1306.1" y1="45.272" x2="2387" y2="45.272" stroke="#1F00FF" stroke-width="1.2607"/>
<line x1="-1306.1" y1="375.204" x2="2387" y2="375.204" stroke="#1F00FF" stroke-width="1.2607"/>
<line x1="-1306.1" y1="1035.07" x2="2387" y2="1035.07" stroke="#1F00FF" stroke-width="1.2607"/>
<line x1="-1306.1" y1="540.172" x2="2387" y2="540.172" stroke="#1F00FF" stroke-width="1.2607"/>
<line x1="-1306.1" y1="210.237" x2="2387" y2="210.237" stroke="#1F00FF" stroke-width="1.2607"/>
<line x1="-1306.1" y1="870.108" x2="2387" y2="870.108" stroke="#1F00FF" stroke-width="1.2607"/>
<line y1="-0.630349" x2="2309.97" y2="-0.630349" transform="matrix(0.000138654 1 -1 8.82781e-05 334.433 -613.971)" stroke="#1F00FF" stroke-width="1.2607"/>
<line y1="-0.630349" x2="2312" y2="-0.630349" transform="matrix(0.000540599 1 -1 0.000344189 743.929 -616)" stroke="#1F00FF" stroke-width="1.2607"/>
<line y1="-0.630349" x2="2309.97" y2="-0.630349" transform="matrix(0.000890269 1 -1 0.000566816 537.909 -613.971)" stroke="#1F00FF" stroke-width="1.2607"/>
<line y1="-0.630349" x2="2309.97" y2="-0.630349" transform="matrix(0.000196719 1 -1 0.000125247 949.949 -613.971)" stroke="#1F00FF" stroke-width="1.2607"/>
<line y1="-0.630349" x2="2309.97" y2="-0.630349" transform="matrix(-0.000618337 1 -1 -0.000393683 130.957 -613.971)" stroke="#1F00FF" stroke-width="1.2607"/>
</g>
<path d="M533 911C463.667 911 404 895.667 354 865C304 833.667 265.333 790.333 238 735C211.333 679.667 198 615 198 541C198 469.667 211.667 406 239 350C267 294 307 250 359 218C411 185.333 473.667 169 547 169C611.667 169 666 179.333 710 200C754.667 220 790.333 249.333 817 288C844.333 326.667 863.667 373.333 875 428L672 436C666 400.667 653.333 373.667 634 355C614.667 335.667 586.333 326 549 326C517 326 489.667 335 467 353C445 371 428 396 416 428C404.667 460 399 497.667 399 541C399 583.667 404.333 621 415 653C426.333 685 443.333 710 466 728C488.667 745.333 517.667 754 553 754C577.667 754 598.667 750 616 742C634 733.333 648.333 721.333 659 706C670.333 690 677.667 671 681 649H548V519H877V895H763L753 751L775 755C769 786.333 754.667 813.667 732 837C710 860.333 681.667 878.667 647 892C613 904.667 575 911 533 911Z" fill="white"/>
</g>
<defs>
<clipPath id="clip0_9_64">
<rect width="1080" height="1080" rx="540" fill="white"/>
</clipPath>
</defs>
</svg>
